<svg width="392" height="392" viewBox="0 0 392 392" fill="none" xmlns="http://www.w3.org/2000/svg">
<path d="M151.335 353.711C152.65 353.801 154.21 353.589 155.432 354.043C155.858 354.549 155.904 354.592 155.968 355.247C154.442 355.234 151.376 355.549 150.22 354.543C150.468 353.95 150.762 353.962 151.335 353.711Z" fill="#040303"/>
<path d="M262.834 353.408C264.607 352.491 266.351 352.004 268.314 351.674C268.975 351.749 269.741 351.665 270.166 352.24C270.212 352.302 270.301 352.538 270.329 352.605C270.48 352.956 270.503 353.032 270.814 353.223C268.099 353.293 265.57 353.608 262.834 353.408Z" fill="#040303"/>
<path d="M209.681 48.0144C210.171 47.9254 210.609 47.9414 211.102 47.9677L211.307 48.2853C211.241 48.3994 211.17 48.5397 211.08 48.6418C209.922 49.9572 207.883 50.193 206.26 50.1984C206.079 50.2042 205.774 50.2166 205.602 50.2094C205.058 50.1866 205.041 50.1484 204.686 49.7636L204.99 49.3189C206.596 48.4728 207.889 48.175 209.681 48.0144Z" fill="#040303"/>
<path d="M185.844 170.281C186.136 170.307 186.373 170.423 186.644 170.528L186.815 170.938C185.926 172.996 183.581 174.304 181.738 175.434C181.373 175.508 181.312 175.423 180.979 175.285C181.254 173.663 184.574 171.332 185.844 170.281Z" fill="#040303"/>
<path d="M204.263 54.1833C205.791 54.3956 207.422 54.5813 208.711 55.5048C209.743 56.2442 210.157 57.1803 210.386 58.3929C208.755 58.0262 207.03 57.4759 205.662 56.4919C204.642 55.759 204.459 55.3684 204.263 54.1833Z" fill="#040303"/>
<path d="M153.162 201.621C152.488 201.787 151.773 201.992 151.079 202.029C149.482 202.116 147 200.735 145.89 199.601C145.478 199.18 145.273 198.798 145.265 198.201C147.133 197.587 149.227 200.225 151.392 199.955C151.47 199.946 151.546 199.928 151.623 199.913L152.098 200.261C152.018 200.624 151.921 200.809 151.694 201.103C152.168 201.492 152.578 201.533 153.162 201.621Z" fill="#040303"/>
<path d="M147.941 185.589L148.482 185.914C148.565 186.455 148.311 186.765 148.068 187.223C147.908 187.523 147.959 187.388 147.89 187.712C146.07 188.541 143.629 189.915 141.594 189.082C141.143 188.897 140.702 188.618 140.285 188.372C140.488 187.826 140.501 187.747 140.966 187.41C143.809 187.68 145.511 186.805 147.941 185.589Z" fill="#040303"/>
<path d="M97.8988 90.2721C98.3877 90.3503 103.892 93.0041 104.187 93.3153C104.484 93.6276 104.36 93.9262 104.342 94.3349C104.297 94.3504 104.252 94.3654 104.208 94.3814C103.823 94.5199 103.429 94.6712 103.025 94.7363C101.879 94.9206 100.371 94.5972 99.479 93.8348C98.2459 92.7809 98.0611 91.7895 97.8988 90.2721Z" fill="#040303"/>
<path d="M173.999 169.671C174.464 170.187 174.576 170.516 174.704 171.194C171.591 173.478 168.475 175.953 165.072 177.79C167.403 174.192 170.523 172.041 173.999 169.671Z" fill="#040303"/>
<path d="M100.257 130.585C102.728 133.845 105.143 137.111 107.682 140.31C103.505 138.444 101.097 135.117 98.3408 131.621L100.257 130.585Z" fill="#040303"/>
<path d="M206.886 40.5067C207.21 40.5355 207.359 40.5626 207.644 40.7422C207.976 40.9531 207.91 41.1445 207.985 41.5091C207.397 44.266 204.738 46.7468 202.818 48.7077C202.715 48.6758 202.607 48.6544 202.507 48.6118C201.942 48.3713 201.82 47.9854 201.625 47.453C201.899 44.7229 204.934 42.1851 206.886 40.5067Z" fill="#262526"/>
<path d="M89.669 72.6002C91.2121 72.9938 91.9666 75.0544 93.3587 75.2855C94.6534 75.5005 96.2247 75.2509 97.5665 75.2843L97.847 75.6423C97.7679 76.3289 97.32 76.7672 96.9039 77.2863C95.5489 77.8814 94.1909 77.786 92.7447 77.7575C91.8201 77.1979 90.8502 76.6458 90.0361 75.9297C89.5218 75.4773 88.9249 74.7973 88.9472 74.0622C88.9701 73.3115 89.1816 73.1106 89.669 72.6002Z" fill="#262526"/>
<path d="M96.3468 67.7921C99.5836 68.9475 99.5894 73.4409 102.103 75.3229C103.511 76.3759 106.385 76.7067 107.361 77.8835L107.252 78.3199C106.622 78.4391 105.977 78.565 105.334 78.5352C102.96 78.4251 100.65 76.8918 99.1221 75.1489C97.4006 73.1866 96.1874 70.4362 96.3468 67.7921Z" fill="#040303"/>
<path d="M302.622 321.14C302.697 321.175 302.781 321.196 302.847 321.248C303.292 321.595 303.295 321.822 303.345 322.337C301.938 325.636 292.757 332.611 289.537 334.64L289.079 334.713L288.926 334.369C290.738 330.659 299.119 324.157 302.622 321.14Z" fill="#262526"/>
<path d="M173.999 169.671C177.731 166.229 186.413 159.898 191.008 158.147C187.552 164.2 180.189 167.248 174.704 171.194C174.576 170.516 174.464 170.187 173.999 169.671Z" fill="#262526"/>
<path d="M164.707 192.605C170.878 192.254 177.026 192.526 183.196 192.393C187.446 192.301 191.726 191.787 195.96 191.775C196.843 191.773 197.671 191.843 198.524 192.089L198.818 192.45C198.47 193.085 197.735 193.462 197.065 193.685C195.455 194.221 193.446 194.155 191.755 194.265C183.08 194.831 174.49 194.373 165.808 194.619C165.06 194.643 164.3 194.779 163.671 194.306C163.784 193.565 164.243 193.174 164.707 192.605Z" fill="#040303"/>
<path d="M268.314 351.674C277.583 350.585 286.749 349.324 295.944 347.713C299.287 347.129 310.369 343.925 312.733 344.794C313.085 345.365 313.063 345.317 312.913 345.974C309.559 349.452 277.62 352.106 270.814 353.223C270.503 353.032 270.48 352.955 270.329 352.605C270.301 352.538 270.212 352.302 270.166 352.24C269.741 351.665 268.975 351.749 268.314 351.674Z" fill="url(#paint0_linear_6417_216)"/>
<path d="M147.941 185.589C150.165 184.782 153.345 185.97 155.385 186.913C156.701 187.521 157.976 188.22 159.245 188.922C159.022 190.204 158.762 191.428 158.371 192.67C160.485 192.566 162.592 192.586 164.707 192.605C164.243 193.174 163.784 193.565 163.671 194.306C164.3 194.779 165.06 194.643 165.808 194.619C163.404 195.049 160.752 195.012 158.308 195.056C158.641 196.588 158.942 197.577 158.003 198.977C157.075 200.362 154.751 201.329 153.162 201.621C152.578 201.533 152.168 201.491 151.694 201.103C151.921 200.809 152.018 200.624 152.098 200.261L151.623 199.913C152.114 199.655 152.375 199.619 152.614 199.105C152.062 198.291 150.893 197.831 150.103 197.245L150.156 196.974C152.252 196.018 154.44 198.517 156.206 197.798L156.249 197.28C154.962 195.206 152.389 194.325 150.651 192.702C150.817 191.023 153.723 191.134 154.748 190.084C155.03 189.795 154.945 189.743 154.944 189.367C154.759 189.156 154.598 188.974 154.357 188.822C152.635 187.733 149.853 187.324 147.89 187.712C147.96 187.388 147.908 187.523 148.068 187.223C148.312 186.765 148.565 186.455 148.482 185.914L147.941 185.589Z" fill="#262526"/>
<path d="M156.653 343.827L156.952 343.97C161.891 346.336 170.088 346.477 175.164 344.69C177.056 344.024 179.468 342.974 180.347 341.045C180.52 340.664 180.593 340.408 180.514 339.988C177.928 338.338 169.707 342.841 168.122 339.956C168.174 339.504 168.075 339.278 168.454 338.978C170.514 337.354 178.04 336.735 180.571 337.184C181.523 337.352 182.322 337.619 183.073 338.246C183.532 339.014 183.645 339.773 183.45 340.655C182.986 342.743 180.816 344.626 179.043 345.682C172.396 349.644 162.682 347.876 155.571 346.006L155.191 345.905C155.72 345.277 156.405 344.62 156.653 343.827Z" fill="#262526"/>
<path d="M280.212 213.854C281.305 214.791 282.229 225.496 282.875 227.936C283.709 231.084 285.245 234.614 288.255 236.242C290.219 237.305 292.842 237.392 294.944 236.674C296.402 236.175 297.526 235.231 298.501 234.067C303.292 228.345 300.582 221.619 302.932 216.94L303.289 216.857C303.427 216.984 303.478 217.017 303.58 217.159C304.407 218.299 304.348 220.578 304.111 221.907C303.989 223.935 303.925 226.012 303.542 228.01C302.826 231.74 301.124 235.763 297.835 237.918C294.052 240.398 289.258 239.965 285.044 239.105C283.751 238.841 281.334 238.608 280.575 237.461L280.683 236.993C281.24 236.458 281.77 236.178 282.476 235.87L282.728 235.762C282.773 235.622 282.868 235.49 282.863 235.345C282.841 234.743 282.058 233.447 281.796 232.796C280.987 230.83 280.345 228.811 279.873 226.739C279.054 223.149 278.135 217.18 280.212 213.854Z" fill="#262526"/>
<path d="M93.2763 110.248C91.673 110.194 90.1056 110.616 88.5682 109.971C88.1055 109.777 88.137 109.775 87.9531 109.313C91.1709 105.224 100.735 107.439 104.866 96.1994C106.764 91.037 104.604 83.3214 105.478 81.6896L105.846 81.588C106.076 81.7252 106.235 81.8633 106.386 82.0873C108.552 85.2742 108.312 91.3631 107.515 94.97C106.077 101.477 102.229 104.725 96.8816 108.164C98.1472 109.579 98.9715 110.984 99.4115 112.847C100.607 117.912 98.0337 120.782 95.5058 124.757C96.5718 126.731 98.8033 128.815 100.257 130.586L98.3408 131.621C96.0407 129.81 94.1344 127.171 91.8543 125.225C94.263 122.494 95.8053 120.901 97.2011 117.452C97.1457 117.07 97.0853 116.688 97.0199 116.307C96.5474 113.582 95.5781 111.857 93.2763 110.248Z" fill="url(#paint1_linear_6417_216)"/>
<path d="M73.4754 122.124L74.233 122.318C74.2407 122.771 68.5627 131.593 67.8494 133.388C63.8903 143.352 66.1444 155.958 66.7713 166.389C67.2212 173.874 68.8345 191.965 63.8739 197.556L63.442 197.291L63.3497 197.05C63.0879 196.368 64.9381 184.719 64.9915 182.605C65.0946 178.524 65.1049 174.316 64.8276 170.242C64.2028 161.062 62.8806 152.084 63.7771 142.87C64.628 134.126 66.5011 127.869 73.4754 122.124Z" fill="#262526"/>
<path d="M292.014 173.281C292.301 173.287 292.572 173.291 292.854 173.356C300.347 175.065 295.61 191.09 297.565 193.896L297.975 193.761C299 192.276 298.849 189.558 299.719 187.78C300.12 186.961 300.486 186.597 301.334 186.321C302.259 186.446 302.883 186.92 303.511 187.597C305.532 189.777 306.136 192.222 305.942 195.124C305.714 198.524 304.412 200.664 301.874 202.874C300.001 203.169 298.197 203.387 296.298 203.451C296.258 204.778 296.196 206.118 296.235 207.444C296.356 211.569 300.144 208.905 302.415 211.21C303.01 211.814 303.41 212.812 303.359 213.664C303.32 214.324 302.959 214.872 302.462 215.286C299.751 217.537 294.161 217.27 290.844 216.953C288.587 216.726 286.155 216.23 284.146 215.145C283.065 214.561 281.973 213.685 281.657 212.44C281.502 211.827 281.599 211.213 281.956 210.69C283.107 209.003 285.919 208.732 287.769 208.468C287.477 206.668 287.294 204.843 287.073 203.034C284.615 202.896 282.402 202.816 280.393 201.206C278.759 199.896 278.014 198.014 277.811 195.984C277.513 193.032 277.797 188.93 279.877 186.599C280.349 186.07 280.714 185.844 281.415 185.783C282.79 186.262 283.464 187.424 284.227 188.58C284.354 190.322 283.927 193.795 285.157 195.111C285.515 195.494 285.616 195.494 286.106 195.523C286.969 194.646 286.83 193.02 286.891 191.864C287.008 189.634 287.308 187.407 287.568 185.19C288.1 180.666 288.431 176.51 292.014 173.281ZM292.321 177.883C292.358 185.199 290.601 192.454 290.917 199.782C291.07 203.318 291.996 207.99 291.48 211.396C291.393 211.966 291.12 212.189 290.893 212.671C290.853 212.755 290.848 212.851 290.825 212.941C291.127 213.701 291.015 214.424 291.663 214.951C292.354 215.065 293.142 215.303 293.807 215.018C294.026 213.805 293.811 212.377 293.728 211.146C293.505 207.85 293.561 204.856 294.548 201.676C296.332 201.033 298.036 201.042 299.832 200.612C300.87 200.365 301.847 199.821 302.375 198.86C303.166 197.422 303.542 193.246 302.99 191.783C302.756 191.167 302.343 190.547 301.731 190.32C301.077 191.087 301.068 192.788 300.887 193.779C300.639 195.139 300.281 197.076 299.01 197.857C298.399 198.232 297.817 198.196 297.148 198.007C292.599 196.72 296.026 180.282 293.946 176.753C293.152 176.824 292.861 177.336 292.321 177.883ZM285.724 198.5C283.697 196.773 282.643 195.652 282.222 192.947C282.171 191.734 282.328 189.902 281.561 188.897L281.155 188.886C280.035 190.051 279.511 192.491 279.562 194.093C279.619 195.873 280.62 198.268 281.903 199.485C282.586 200.132 283.493 200.596 284.453 200.569C285.165 200.55 285.614 200.325 286.171 199.909L286.367 199.353C286.156 198.923 286.109 198.773 285.724 198.5Z" fill="#262526"/>
<path d="M285.724 198.5C286.109 198.773 286.156 198.923 286.367 199.353L286.171 199.909C285.614 200.325 285.165 200.55 284.453 200.569C283.493 200.596 282.586 200.132 281.903 199.485C280.62 198.268 279.619 195.873 279.562 194.093C279.511 192.491 280.035 190.051 281.155 188.886L281.561 188.897C282.328 189.902 282.171 191.734 282.222 192.947C282.643 195.652 283.697 196.773 285.724 198.5ZM285.724 198.5C283.697 196.773 282.643 195.652 282.222 192.947C281.738 193.157 281.641 193.181 281.44 193.711C281.043 194.761 281.51 196.211 281.991 197.17C282.416 198.018 283.135 199.23 284.062 199.588C284.636 199.81 284.744 199.682 285.253 199.417C285.456 199.094 285.623 198.868 285.724 198.5Z" fill="#C1BFC0"/>
<path d="M290.825 212.941L290.539 212.758C290.252 211.918 289.996 211.074 289.851 210.197C289.387 207.395 289.494 204.507 289.412 201.678C289.216 194.913 288.276 183.593 292.321 177.883C292.358 185.199 290.601 192.454 290.917 199.782C291.07 203.318 291.996 207.99 291.48 211.396C291.393 211.966 291.12 212.189 290.893 212.671C290.853 212.755 290.848 212.851 290.825 212.941Z" fill="#C1BFC0"/>
<path d="M321.909 325.495C321.199 323.139 320.315 320.09 321.619 317.768C322.618 315.989 325.22 315.204 327.083 314.767C332.483 313.504 360.066 311.698 364.062 314.045C364.412 314.25 364.483 314.397 364.696 314.742C364.419 315.221 364.174 315.268 363.626 315.399C362.778 315.603 361.844 315.646 360.975 315.734C361.131 317.598 360.214 323.621 361.535 324.744C362.278 325.377 363.183 325.357 363.736 326.222C363.659 326.557 363.713 326.695 363.411 326.899C362.736 327.357 361.777 326.846 361.231 327.43C361.751 331.61 364.684 331.802 361.142 336.88L364.097 339.124C362.083 338.903 360.136 338.982 358.118 339.073L358.162 339.342C358.468 341.305 358.095 348.696 358.147 348.892C358.173 348.989 358.417 349.179 358.467 349.207C359.572 349.852 361.053 349.974 362.271 350.704C353.905 352.678 318.979 351.955 309.654 350.574C311.951 350.057 313.98 349.62 316.355 349.855C316.146 348.549 315.835 347.128 315.922 345.808C316.05 343.839 317.263 341.54 316.747 339.659C316.697 339.479 316.665 339.294 316.625 339.111C316.519 338.623 316.534 338.675 316.805 338.241C318.423 337.507 320.667 337.617 322.418 337.561C322.314 335.891 322.282 329.244 321.548 328.34C321.53 328.318 321.506 328.303 321.484 328.284C319.271 328.685 316.629 328.463 314.371 328.493C314.435 328.455 314.5 328.416 314.565 328.379C314.674 328.317 314.784 328.259 314.894 328.198C317.061 326.98 319.621 326.5 321.909 325.495ZM349.503 339.178C344.772 339.398 322.806 339.547 320.098 342.835C319.243 343.871 319.214 345.689 319.436 346.938C319.558 347.627 319.77 348.265 320.374 348.675C321.975 349.759 324.692 349.439 326.551 349.377C331.95 349.233 337.35 349.196 342.751 349.266C347.221 349.322 351.776 349.583 356.231 349.225C356.148 345.832 356.113 342.439 356.127 339.045C353.969 339.173 351.613 338.905 349.503 339.178ZM348.956 315.46C343.208 315.99 328.192 314.73 324.5 319.456C324.019 320.073 323.812 320.833 323.928 321.607C324.081 322.64 324.738 323.696 325.587 324.301C327.484 325.652 332.676 325.127 335.027 325.123C339.463 325.082 355.975 325.654 358.898 324.401C359.542 321.697 359.017 318.299 359.284 315.446C355.841 315.419 352.399 315.424 348.956 315.46ZM340.251 327.462C336.004 327.548 331.623 327.459 327.423 328.127C326.935 329.911 327.628 335.226 327.575 337.563C329.141 337.521 330.718 337.518 332.279 337.412C336.693 337.195 341.157 336.81 345.572 336.823C344.788 333.57 344.59 330.516 344.736 327.181C343.24 327.339 341.754 327.41 340.251 327.462ZM350.496 327.487C350.491 330.411 350.671 333.487 350.308 336.385C353.383 336.224 356.74 336.249 359.705 335.322C360.242 334.475 360.558 333.74 360.862 332.791C360.593 331.64 360.37 330.452 360.034 329.321C356.861 327.848 353.941 327.596 350.496 327.487Z" fill="#262526"/>
<path d="M345.525 318.389C348.955 318.315 353.892 317.62 357.011 319.086L356.999 319.305C354.338 320.224 347.036 319.856 343.978 319.901C339.43 320.212 334.932 320.6 330.427 319.68C335.333 318.735 340.542 318.709 345.525 318.389Z" fill="#040303"/>
<path d="M330.861 345.683C333.351 345.663 345.706 345.718 347.206 346.782C346.82 347.246 346.473 347.196 345.892 347.31C344.285 347.514 342.656 347.555 341.038 347.579C338.836 347.614 330.504 347.887 329.238 346.66C329.677 346.059 330.192 345.958 330.861 345.683Z" fill="#040303"/>
<path d="M329.466 342.102C329.943 341.992 351.445 342.281 353.245 342.423C351.301 342.942 349.306 343.188 347.318 343.474C344.089 344.001 327.079 344.968 324.892 343.516C324.863 343.101 324.792 343.238 325.063 342.946C325.903 342.038 328.27 342.174 329.466 342.102Z" fill="#4D4B4C"/>
<path d="M91.5576 252.203C91.8284 252.377 92.116 252.551 92.3515 252.773C94.0485 254.374 95.5405 257.04 96.9868 258.915C101.306 264.516 106.698 270.078 110.091 276.268C111.296 278.464 112.437 281.256 112.452 283.797C112.504 292.983 97.0879 333.709 90.3043 340.618C84.8597 342.604 74.5788 338.999 68.8159 337.839C68.9709 340.534 73.7055 349.748 75.8843 351.686C76.0885 351.866 76.3013 352.035 76.5226 352.194C76.7439 352.352 76.9727 352.499 77.2088 352.635C77.445 352.77 77.6874 352.893 77.9359 353.003C78.1846 353.114 78.4381 353.212 78.6966 353.298C78.9551 353.382 79.2173 353.454 79.483 353.513C79.7488 353.571 80.0169 353.617 80.2873 353.649C80.5576 353.68 80.8289 353.698 81.101 353.702C81.3731 353.706 81.6448 353.697 81.916 353.673C82.9514 353.588 84.5367 353.265 85.2439 352.437C84.974 349.418 78.5658 348.07 76.6892 345.75C76.1172 345.043 75.8038 344.207 75.9148 343.303L76.4072 343.01C79.3739 343.346 85.3481 347.932 87.2503 350.171L87.4428 350.399C87.8344 351.146 88.3877 352.071 88.3461 352.945C88.3151 353.598 87.9063 354.144 87.4042 354.53C83.9797 357.161 70.5426 355.502 66.3943 355.02C68.474 353.524 70.3479 352.764 72.8671 352.305C69.966 347.333 67.6515 341.959 64.9774 336.856C62.8309 341.004 59.5433 344.904 56.77 348.659C58.04 343.235 59.883 338.997 63.355 334.569C59.9298 332.921 54.7259 330.271 53.2513 326.64C53.7629 324.075 54.5566 321.653 55.605 319.259C60.9386 307.076 67.9604 295.553 74.1771 283.813L82.9589 267.302C85.6952 262.041 87.9791 256.977 91.5576 252.203Z" fill="#262526"/>
<path d="M83.8135 34.8113C84.2383 34.7498 84.6649 34.7055 85.0932 34.6784C85.5216 34.6512 85.9503 34.6413 86.3794 34.6486C86.8086 34.6559 87.2367 34.6804 87.6638 34.7221C88.091 34.7639 88.5158 34.8227 88.9382 34.8986C89.3606 34.9745 89.7793 35.0672 90.1943 35.1768C90.6093 35.2863 91.0192 35.4123 91.4241 35.5548C91.8289 35.6974 92.2274 35.8559 92.6195 36.0304C93.0116 36.205 93.3961 36.395 93.7729 36.6005C94.2046 36.8442 94.6233 37.1083 95.0291 37.393C95.4349 37.6776 95.8259 37.9814 96.202 38.3043C96.5781 38.6271 96.9376 38.9676 97.2804 39.3256C97.6229 39.6837 97.9474 40.0576 98.2538 40.4474C98.5601 40.8372 98.8466 41.241 99.1133 41.6588C99.3799 42.0766 99.6256 42.5064 99.8505 42.9482C100.075 43.3901 100.278 43.8418 100.459 44.3035C100.639 44.7652 100.797 45.2345 100.931 45.7116C102.186 50.2068 101.081 55.0225 98.5451 58.8693C97.2191 60.8801 95.5844 62.6781 94.411 64.79L94.2666 65.0541C93.4064 65.3897 92.4078 65.7269 91.6508 66.2516C90.3704 67.1392 88.2596 69.7458 86.7064 69.7336C86.4112 69.021 86.894 68.4281 86.617 67.7427C84.9695 67.4902 81.066 68.4016 79.0512 68.5189C75.6153 68.7191 72.4099 68.1653 69.0379 67.6007L69.3744 68.1192L69.3378 68.1027C70.4588 69.8176 71.7134 71.5498 72.6376 73.3774C76.1223 80.2693 77.7951 88.9455 78.579 96.5598C79.2502 103.079 80.0793 112.389 75.6173 117.758C71.5554 122.646 62.6334 122.882 56.7743 123.392C46.2356 124.123 35.4629 123.573 25.8955 118.767C27.8219 112.885 29.9873 106.88 30.7884 100.719C32.3271 88.8827 30.6288 76.9266 35.8896 65.762C38.511 60.1985 42.894 56.3918 48.6916 54.3588C53.6839 52.6082 58.9045 52.2668 63.7583 54.5698C63.8058 54.3199 63.8601 54.0734 63.9117 53.8246C64.6785 50.1298 66.7148 46.3755 69.0364 43.4376C72.7915 38.6855 77.7532 35.504 83.8135 34.8113ZM94.8938 41.6814C97.4205 48.3327 98.1423 50.3055 95.2593 57.0951C94.8429 58.0757 94.0946 59.3222 94.0784 60.3927L94.5416 60.0014C97.5911 55.8714 98.8444 51.5676 98.1061 46.4154C97.8421 44.5713 97.1183 43.0031 95.5238 41.9446C95.3204 41.8096 95.1247 41.751 94.8938 41.6814Z" fill="#262526"/>
<path d="M310.425 236.061C308.786 235.696 304.587 235.98 303.554 234.944C303.932 234.3 304.41 234.091 305.139 233.894C307.07 233.37 309.981 233.373 311.699 234.481C314.217 236.109 318.979 241.751 320.267 244.429C320.94 245.826 321.169 247.556 321.433 249.076C322.413 254.724 323.781 278.724 321.208 282.792C320.035 284.647 315.919 284.897 313.938 285.487C316.281 286.836 320.44 289.155 321.251 291.835C322.261 295.168 321.834 310.5 320.381 313.746L320.084 313.883C318.374 310.215 319.791 294.904 317.66 293.074C309.967 294.606 301.985 295.319 294.218 296.486C285.809 297.817 277.383 299.028 268.94 300.118C266.578 300.415 264.216 300.887 261.849 301.097C262.161 303.988 262.006 306.985 262.003 309.891L261.837 327.368C261.785 336.151 262.578 345.084 261.497 353.821C253.584 350.612 246.735 345.793 239.247 341.774C235.965 340.012 232.257 339.037 229.056 337.183C228.251 336.717 227.816 336.311 227.391 335.484C227.609 334.894 227.979 334.704 228.556 334.455C229.437 334.076 230.372 333.773 231.277 333.454C230.974 316.396 230.897 299.337 231.045 282.276C234.24 281.292 244.478 279.049 247.446 280.287C247.499 280.308 247.537 280.355 247.582 280.389C247.053 281.297 245.631 281.607 244.661 281.858C241.84 282.586 239.203 283.144 236.455 284.176C241.179 287.877 246.153 291.027 251.369 293.992C254.382 295.704 257.724 297.179 260.479 299.279C266.572 297.821 272.725 297.242 278.917 296.36C285.726 295.39 292.51 294.214 299.31 293.168C304.691 292.342 310.482 291.738 315.65 289.973C313.784 288.814 312.013 287.773 309.872 287.192C305.32 285.956 300.586 286.38 295.95 286.669C291.668 286.936 287.38 287.145 283.1 287.447C277.826 287.821 272.221 288.564 266.968 287.807C263.034 287.241 259.378 285.799 255.822 284.081C254.541 283.463 252.003 282.536 251.697 280.974C251.611 280.533 251.76 280.354 251.917 279.949L253.151 278.91C252.765 273.921 252.589 268.925 252.622 263.921C252.677 260.148 252.947 256.367 252.927 252.597C252.906 248.468 252.033 243.79 252.83 239.743C253.427 239.312 253.727 239.415 254.449 239.415C254.535 239.348 254.708 238.986 254.764 238.884C254.63 238.176 254.462 237.517 254.911 236.888C255.84 235.589 257.829 235.273 259.316 235.103C262.757 234.711 275.036 234.207 277.618 235.568L277.405 235.462C277.269 235.812 277.198 236.319 276.846 236.467C272.568 238.283 264.244 237.001 259.062 238.128C260.686 239.707 262.156 241.411 263.846 242.924C264.997 243.954 266.412 244.75 267.447 245.875C277.112 245.414 286.806 245.318 296.479 244.936C302.476 244.701 311.839 243.888 317.511 244.415C314.931 241.851 312.901 238.745 310.425 236.061ZM319.096 246.548C308.041 247.365 296.956 247.249 285.882 247.637C282.119 247.769 278.181 247.575 274.456 248.074C272.912 248.28 270.001 248.696 268.999 250.017C266.913 252.769 267.74 280.502 267.808 285.417C268.697 285.531 269.538 285.517 270.429 285.484C279.486 285.206 288.449 284.714 297.486 284.111C304.598 283.637 312.903 283.687 319.644 281.277C319.831 278.549 320.042 275.811 320.1 273.078C320.209 267.86 319.982 262.649 319.929 257.434C319.898 254.286 320.103 251.064 319.918 247.927C319.883 247.32 319.878 246.991 319.514 246.511L319.096 246.548Z" fill="#262526"/>
<path d="M254.764 238.883C258.277 241.971 263.129 244.523 265.922 248.26C266.067 251.74 265.779 255.206 265.745 258.684C265.666 267.268 265.674 276.193 264.775 284.723C260.331 282.045 257.589 279.823 256.269 274.618C255.57 271.863 255.475 268.909 255.289 266.082C254.707 257.186 255.195 248.308 254.449 239.415C254.536 239.348 254.708 238.986 254.764 238.883Z" fill="#8B8A8A"/>
<path d="M233.311 286.074C234.929 286.374 249.607 295.76 252.485 297.413C254.866 298.781 257.256 299.93 259.795 300.974C260.155 305.877 259.894 310.927 259.943 315.855C260.013 322.92 259.851 329.89 259.675 336.945C259.571 341.147 259.671 345.333 259.241 349.522C259.048 349.88 259.197 349.741 258.748 349.881C254.845 348.008 239.667 339.443 237.144 336.791C235.434 334.994 234.551 332.721 234.087 330.315C232.797 323.611 233.472 313.729 233.464 306.663C233.458 299.793 233.13 292.945 233.311 286.074Z" fill="#8B8A8A"/>
<path d="M293.788 270.909L294.48 271.203C294.647 271.643 294.734 272.016 294.79 272.482C293.019 274.037 291.192 275.393 289.252 276.724C290.377 274.02 291.443 272.659 293.788 270.909Z" fill="#040303"/>
<path d="M293.788 270.909C295.928 268.865 305.877 259.354 308.123 259.475C308.431 259.492 308.36 259.528 308.543 259.799C307.494 263.785 298.058 269.419 294.79 272.482C294.734 272.016 294.647 271.642 294.48 271.202L293.788 270.909Z" fill="#262526"/>
<path d="M140.099 51.8944C140.413 52.9197 140.697 53.961 141.093 54.9573C141.72 56.5339 141.107 58.0432 142.629 59.2347C143.807 59.5291 145.77 59.1985 146.821 58.5838C149.879 56.7957 150.449 50.5423 152.49 49.476C153.294 49.0552 188.92 49.966 191.336 50.5313C191.618 50.5946 191.897 50.6688 192.174 50.754C190.807 55.1457 189.487 60.6698 186.232 64.0544C186.277 69.0228 186.281 73.9912 186.243 78.9595C186.225 81.5037 185.953 84.3092 186.252 86.8207C187.345 87.3766 188.901 87.7511 189.266 89.0941C189.834 91.1894 189.63 95.5753 189.726 97.9086C190.204 109.502 190.697 121.128 190.417 132.732C193.569 132.313 197.697 133.344 200.863 133.798C201.297 135.734 201.693 137.653 201.867 139.633C202.517 147.041 202.275 154.413 202.471 161.83C202.636 168.033 203.253 174.316 203.102 180.515C203.035 183.199 203.191 187.672 201.866 190.014C201.593 190.496 201.405 190.731 200.879 190.898C199.883 189.51 200.133 175.6 200.208 172.904C200.28 170.253 200.082 167.607 200.069 164.956C200.039 159.439 200.077 153.976 199.772 148.461C199.545 144.339 198.778 140.051 199.006 135.939C183.588 134.296 168.085 134.928 152.618 135.349C148.803 135.452 144.986 135.422 141.173 135.529C138.928 135.594 136.686 135.87 134.44 135.748C134.988 145.514 134.851 155.386 134.72 165.163C134.67 168.916 135.002 173.063 134.465 176.762C136.012 177.793 137.909 179.279 138.364 181.188L138.099 181.522C137.141 181.517 136.162 181.087 135.341 180.606C133.415 179.481 131.684 177.791 129.879 176.463C124.412 172.438 118.699 168.677 113.912 163.825C109.23 159.08 105.659 153.186 102.587 147.305C107.209 151.748 111.764 156.857 115.536 162.046C115.668 161.818 115.726 161.753 115.778 161.459C115.98 160.335 115.689 147.686 115.561 146.278C115.505 145.661 115.418 145.22 115.099 144.683L114.366 144.521L114.247 144.164C114.7 143.665 115.177 143.204 115.666 142.742C115.614 141.461 115.638 140.167 115.626 138.884L115.624 138.517C115.592 135.607 115.161 132.708 114.974 129.804C114.588 123.848 113.863 104.334 115.32 99.6667C115.797 98.1384 116.768 96.9481 117.864 95.8175C121.226 92.3519 124.701 88.8408 129.557 87.8162C129.174 80.3956 129.26 73.0141 129.06 65.5958C126.978 63.4225 123.344 58.444 123.491 55.3676C123.519 54.7945 123.608 54.423 124.077 54.0469C126.375 52.2067 136.343 51.181 139.366 51.7359C139.612 51.7805 139.856 51.8333 140.099 51.8944ZM174.218 89.5871C162.845 90.021 151.417 89.3057 140.051 89.777C136.495 89.9246 132.9 90.396 129.36 90.7845C130.314 101.383 129.708 112.091 129.746 122.721C129.758 126.508 129.438 130.704 130.025 134.429C134.05 133.175 137.79 132.937 141.968 132.736C149.5 132.979 156.91 132.775 164.435 132.725C169.654 132.69 181.349 133.354 185.693 131.835C186.702 130.722 187.512 129.748 187.836 128.228C188.749 123.941 188.06 118.602 187.864 114.215C187.503 106.082 186.875 97.8314 186.988 89.6966C182.756 89.819 178.417 89.2688 174.218 89.5871ZM146.196 65.2323C146.438 67.8255 146.344 70.5207 146.39 73.1273L146.623 86.7725L146.831 87.1753C148.523 87.4814 150.355 87.3652 152.072 87.377C162.659 87.8228 173.389 86.5622 183.983 87.2816C183.363 80.7516 183.826 72.4219 183.832 65.7127C177.518 66.2372 171.022 65.552 164.698 65.4595C158.567 65.3698 152.296 65.8625 146.196 65.2323ZM154.243 51.8185C152.401 55.5272 150.264 59.119 148.211 62.7156C152.89 63.502 157.706 63.2939 162.436 63.4056C167.697 63.5297 173.125 63.9101 178.378 63.4777C179.836 63.3576 181.151 63.1043 182.523 62.5967C186.289 59.812 187.513 56.8733 188.893 52.5175C184.256 53.066 178.916 52.3008 174.244 52.0988C167.562 51.8099 160.93 51.7678 154.243 51.8185ZM132.599 67.4313C132.78 72.4203 131.815 79.6641 135.754 83.4741C137.602 85.2611 141.656 86.1294 144.172 86.084C144.402 86.0798 144.632 86.0467 144.851 85.9784C144.822 84.1582 144.363 82.2486 144.163 80.4253C143.806 77.053 143.671 73.672 143.759 70.282C143.787 69.1985 144.137 66.489 143.453 65.7562C143.178 65.668 142.949 65.614 142.66 65.6785C139.426 66.3978 136.1 66.2167 132.839 66.8578L132.599 67.4313ZM137.196 54.128C133.54 54.5131 129.919 55.452 126.261 55.6971C129.151 58.1389 129.488 60.5661 133.262 62.9147C136.624 63.7399 139.497 63.862 142.908 63.3365C142.053 62.2072 141.095 61.047 140.449 59.7846C139.847 58.6099 138.704 54.4918 138 54.0159L137.196 54.128Z" fill="#262526"/>
<path d="M132.305 87.3742C131.197 83.3928 130.276 71.585 131.2 67.815C131.708 67.3168 131.79 67.2588 132.482 67.0984L132.599 67.4312C132.78 72.4203 131.815 79.664 135.754 83.474C137.602 85.2611 141.656 86.1294 144.172 86.0839C144.402 86.0797 144.632 86.0467 144.851 85.9783C145.364 85.5579 145.552 85.2469 146.229 85.2366C146.49 85.7604 146.555 86.2024 146.623 86.7724L146.831 87.1753C148.523 87.4813 150.355 87.3652 152.072 87.377C145.324 87.6552 139.061 88.2241 132.305 87.3742Z" fill="#8B8A8A"/>
<path d="M115.099 144.683C118.243 143.263 127.923 138.078 130.86 139.184C131.616 139.948 131.917 140.867 132.118 141.901C132.793 145.386 132.462 149.39 132.497 152.946C132.525 155.748 132.71 158.553 132.689 161.354C132.658 165.46 132.473 169.763 130.804 173.565C127.546 171.607 117.069 165.002 115.536 162.046C115.668 161.818 115.726 161.753 115.778 161.459C115.98 160.335 115.689 147.686 115.561 146.278C115.505 145.661 115.418 145.22 115.099 144.683Z" fill="#8B8A8A"/>
<path d="M127.004 92.0708C128.467 106.456 126.735 120.975 128.673 135.36C124.943 137.254 118.843 140.282 115.666 142.742C115.614 141.461 115.638 140.167 115.626 138.884C119.536 134.615 114.705 105.671 117.65 100C119.411 96.6101 123.788 93.9794 127.004 92.0708Z" fill="#C1BFC0"/>
<path d="M137.722 97.5847C138.155 97.8431 138.331 97.889 138.488 98.4014C139.078 100.315 138.602 106.058 138.642 108.392C138.685 110.89 139.721 123.643 139.09 125.038C138.861 124.91 138.566 124.76 138.395 124.555C136.849 122.694 137.285 100.685 137.722 97.5847Z" fill="#040303"/>
<path d="M73.7825 196.984C72.4654 197.431 70.5931 198.315 69.2286 198.321C68.652 198.323 68.3201 198.281 67.9383 197.866C69.1125 195.918 85.8141 190.398 88.6116 189.618C91.1917 188.898 97.0272 188.32 98.9128 186.724C99.3245 185.461 98.6703 184.268 98.0455 183.182C95.6676 179.054 91.9688 175.554 89.0516 171.798C86.7024 168.773 73.454 150.526 73.2634 148.202C73.641 147.972 73.8609 147.818 74.1057 147.447C73.9825 146.858 73.8351 146.283 73.6771 145.703L73.94 145.409C74.5372 145.619 88.5271 167.109 90.4866 169.828C95.3038 176.51 109.997 192.967 116.778 196.751C117.626 197.225 118.513 197.386 119.464 197.534L119.85 197.594C126.901 194.555 130.805 186.812 138.184 184.725C139.053 185.809 139.761 186.682 140.966 187.41C140.501 187.747 140.488 187.826 140.285 188.372C139.355 188.034 138.749 187.427 138.04 186.769C136.205 188.165 134.653 189.612 133.134 191.34C139.273 194.439 139.186 196.386 143.066 201.261C143.145 201.298 143.223 201.336 143.303 201.371C144.633 201.974 146.18 201.928 147.389 202.681L147.516 203.012C147.085 203.573 146.317 203.808 145.636 203.909C144.173 204.126 142.844 203.545 141.54 202.976C138.095 197.74 136.606 195.776 130.595 193.243C129.385 194.213 128.113 195.151 126.997 196.229C129.212 202.61 132.14 208.856 134.704 215.115C137.85 222.793 140.869 230.564 144.316 238.113C149.599 249.682 155.737 261.141 162.312 272.025C167.943 281.347 174.104 290.356 179.882 299.589C182.909 304.426 186.461 309.657 188.488 314.988C189.217 316.904 189.081 318.651 188.207 320.476C187.176 322.627 185.329 324.404 183.605 326.012C178.438 330.836 172.558 334.277 166.432 337.712C163.138 339.559 159.488 341.299 156.653 343.826C156.405 344.619 155.72 345.277 155.191 345.905C154.911 347.453 156.647 350.862 157.53 352.136C158.248 353.172 159.192 354.002 160.188 354.762C159.052 354.95 157.054 355.511 155.968 355.247C155.904 354.592 155.858 354.549 155.432 354.043C154.21 353.589 152.65 353.801 151.335 353.711C152.695 353.309 153.929 353.367 155.324 353.445C153.843 350.366 152.934 347.636 152.338 344.269C147.382 345.325 143.899 346.297 139.056 344.24C133.021 336.185 126.849 313.81 123.255 303.24C120.078 293.899 116.523 284.349 112.179 275.493C104.387 259.609 91.3526 247.506 81.7089 232.868C74.1029 221.324 70.921 210.894 73.7825 196.984Z" fill="#262526"/>
<defs>
<linearGradient id="paint0_linear_6417_216" x1="289.976" y1="345.293" x2="292.369" y2="352.537" gradientUnits="userSpaceOnUse">
<stop stop-color="#292F27"/>
<stop offset="1" stop-color="#3D353C"/>
</linearGradient>
<linearGradient id="paint1_linear_6417_216" x1="108.088" y1="109.661" x2="91.4195" y2="102.604" gradientUnits="userSpaceOnUse">
<stop stop-color="#212020"/>
<stop offset="1" stop-color="#3E3D3C"/>
</linearGradient>
</defs>
</svg>
